<svg xmlns="http://www.w3.org/2000/svg" viewBox="0 0 128 128" enable-background="new 0 0 128 128" class="heart">
<title>❤️</title>
<path d="M47.5 4.6C59.1 9 65.2 18.5 69.8 30.3c.3.8.6 1.5 1.1 2.6.3-.7.4-1.1.6-1.5 1.7-5.6 3.7-11.1 7.2-16 4-5.8 9.3-9.9 16.5-10.8 7.9-1.1 14.6 1.5 20.3 6.9 9.5 9.1 12.9 20.4 11.7 33.2-1 11.3-5.6 21.4-12 30.5-7.3 10.3-15.2 20.1-22.7 30.3-4.5 6.2-8.6 12.6-12.8 19-.7 1-1.2 1.5-2.5.9-21.8-9.9-41.5-23-57.8-40.7C11.4 76 5 66.2 2.1 54.5 1.3 51.2.6 48.3.6 44.8c0-1.2.1-5.2.1-5.2.6-9 3.6-17.1 8.7-24.5C13.9 9 19.5 4 27.1 2.3 33 1 39 1.4 47.5 4.6zm30.2 113.1c.4-.5.6-.8.8-1.1 5.4-7.4 10.7-14.8 16.1-22.1 6.1-8.3 12.5-16.3 18.5-24.7 4.3-6.1 7.9-12.8 9.9-20.1 3.1-11.5 1.1-21.9-7.7-30.4-9.9-9.6-24.6-8.7-33.5 1.8-3 3.6-5.2 7.6-6.7 12-.9 2.5-1.6 5-2.4 7.4-.2.5-.6 1.2-1.1 1.2-.6 0-1.1-.7-1.2-1.2-.3-1.2-.3-2.5-.5-3.8-.1-.6 0-1.3-.2-1.9-2-5.8-5.1-11.2-9.4-15.8-10.7-11.4-27-14.2-39.2-6.3-12 7.6-20.8 23.8-15 41 3 9 8.3 16.6 14.6 23.5 11.9 13.1 25.8 23.6 41.2 32.2 5.1 3 10.5 5.6 15.8 8.3z"/>
</svg>
